<svg xmlns="http://www.w3.org/2000/svg" xmlns:xlink="http://www.w3.org/1999/xlink" width="327px" height="732px" version="1.1"><defs/><g transform="translate(0.5,0.5)"><path d="M 2 546 L 2 433" fill="none" stroke="#331a00" stroke-width="4" stroke-miterlimit="10" pointer-events="none"/><path d="M 2 546 L 242 546" fill="none" stroke="#331a00" stroke-width="4" stroke-miterlimit="10" pointer-events="none"/><path d="M 242 546 L 242 433" fill="none" stroke="#331a00" stroke-width="4" stroke-miterlimit="10" pointer-events="none"/><path d="M 2 729 L 2 621" fill="none" stroke="#331a00" stroke-width="4" stroke-miterlimit="10" pointer-events="none"/><path d="M 2 729 L 242 729" fill="none" stroke="#331a00" stroke-width="4" stroke-miterlimit="10" pointer-events="none"/><path d="M 242 729 L 242 621" fill="none" stroke="#331a00" stroke-width="4" stroke-miterlimit="10" pointer-events="none"/><rect x="4" y="204" width="320" height="150" fill="none" stroke="#663300" stroke-width="4" pointer-events="none"/><path d="M 238.5 151 C 228.5 151 226 163 234 165.4 C 226 170.68 235 182.2 241.5 177.4 C 246 187 261 187 266 177.4 C 276 177.4 276 167.8 269.75 163 C 276 153.4 266 143.8 257.25 148.6 C 251 141.4 241 141.4 238.5 151 Z" fill="none" stroke="#006633" stroke-width="2" stroke-miterlimit="10" pointer-events="none"/><rect x="248" y="179" width="10" height="16" fill="#ffffff" stroke="none" pointer-events="none"/><path d="M 248 199 L 248 179" fill="none" stroke="#994c00" stroke-width="3" stroke-miterlimit="10" pointer-events="none"/><path d="M 258 199 L 258 189 Q 258 179 258 179 L 258 179" fill="none" stroke="#994c00" stroke-width="3" stroke-miterlimit="10" pointer-events="none"/><path d="M 248 179 L 242 175 L 248 179" fill="none" stroke="#994c00" stroke-width="2" stroke-miterlimit="10" pointer-events="none"/><path d="M 244 203 L 246 202 Q 248 201 248 197 L 248 193" fill="none" stroke="#994c00" stroke-width="3" stroke-miterlimit="10" pointer-events="none"/><path d="M 262 203 L 260 202 Q 258 201 258 197 L 258 193" fill="none" stroke="#994c00" stroke-width="3" stroke-miterlimit="10" pointer-events="none"/><path d="M 248 179 L 248 171 L 248 179" fill="none" stroke="#994c00" stroke-width="2" stroke-miterlimit="10" pointer-events="none"/><path d="M 248 179 L 254 171 L 258 181" fill="none" stroke="#994c00" stroke-width="2" stroke-miterlimit="10" pointer-events="none"/><path d="M 258 179 L 260 173 L 258 179" fill="none" stroke="#994c00" stroke-width="2" stroke-miterlimit="10" pointer-events="none"/><path d="M 258 181 L 264 175 L 258 181" fill="none" stroke="#994c00" stroke-width="2" stroke-miterlimit="10" pointer-events="none"/><path d="M 254 191 L 254 183 L 254 193" fill="none" stroke="#994c00" stroke-miterlimit="10" pointer-events="none"/><path d="M 264 161 L 266 159 Q 268 157 266 155 L 264 153" fill="none" stroke="#006633" stroke-miterlimit="10" pointer-events="none"/><path d="M 237 175 L 235 173 Q 233 171 235 169 L 237 167" fill="none" stroke="#006633" stroke-miterlimit="10" pointer-events="none"/><path d="M 287.5 151 C 277.5 151 275 163 283 165.4 C 275 170.68 284 182.2 290.5 177.4 C 295 187 310 187 315 177.4 C 325 177.4 325 167.8 318.75 163 C 325 153.4 315 143.8 306.25 148.6 C 300 141.4 290 141.4 287.5 151 Z" fill="none" stroke="#006633" stroke-width="2" stroke-miterlimit="10" pointer-events="none"/><rect x="297" y="179" width="10" height="16" fill="#ffffff" stroke="none" pointer-events="none"/><path d="M 297 199 L 297 179" fill="none" stroke="#994c00" stroke-width="3" stroke-miterlimit="10" pointer-events="none"/><path d="M 307 199 L 307 189 Q 307 179 307 179 L 307 179" fill="none" stroke="#994c00" stroke-width="3" stroke-miterlimit="10" pointer-events="none"/><path d="M 297 179 L 291 175 L 297 179" fill="none" stroke="#994c00" stroke-width="2" stroke-miterlimit="10" pointer-events="none"/><path d="M 293 203 L 295 202 Q 297 201 297 197 L 297 193" fill="none" stroke="#994c00" stroke-width="3" stroke-miterlimit="10" pointer-events="none"/><path d="M 311 203 L 309 202 Q 307 201 307 197 L 307 193" fill="none" stroke="#994c00" stroke-width="3" stroke-miterlimit="10" pointer-events="none"/><path d="M 297 179 L 297 171 L 297 179" fill="none" stroke="#994c00" stroke-width="2" stroke-miterlimit="10" pointer-events="none"/><path d="M 297 179 L 303 171 L 307 181" fill="none" stroke="#994c00" stroke-width="2" stroke-miterlimit="10" pointer-events="none"/><path d="M 307 179 L 309 173 L 307 179" fill="none" stroke="#994c00" stroke-width="2" stroke-miterlimit="10" pointer-events="none"/><path d="M 307 181 L 313 175 L 307 181" fill="none" stroke="#994c00" stroke-width="2" stroke-miterlimit="10" pointer-events="none"/><path d="M 303 191 L 303 183 L 303 193" fill="none" stroke="#994c00" stroke-miterlimit="10" pointer-events="none"/><path d="M 313 161 L 315 159 Q 317 157 315 155 L 313 153" fill="none" stroke="#006633" stroke-miterlimit="10" pointer-events="none"/><path d="M 286 175 L 284 173 Q 282 171 284 169 L 286 167" fill="none" stroke="#006633" stroke-miterlimit="10" pointer-events="none"/><ellipse cx="20" cy="216" rx="2" ry="2" fill="#994c00" stroke="none" pointer-events="none"/><ellipse cx="36" cy="226" rx="2" ry="2" fill="#994c00" stroke="none" pointer-events="none"/><ellipse cx="48" cy="220" rx="2" ry="2" fill="#994c00" stroke="none" pointer-events="none"/><ellipse cx="52" cy="230" rx="2" ry="2" fill="#994c00" stroke="none" pointer-events="none"/><ellipse cx="51" cy="210" rx="2" ry="2" fill="#994c00" stroke="none" pointer-events="none"/><ellipse cx="39" cy="214" rx="2" ry="2" fill="#994c00" stroke="none" pointer-events="none"/><ellipse cx="24" cy="238" rx="2" ry="2" fill="#994c00" stroke="none" pointer-events="none"/><ellipse cx="12" cy="229" rx="2" ry="2" fill="#994c00" stroke="none" pointer-events="none"/><ellipse cx="79" cy="218" rx="2" ry="2" fill="#994c00" stroke="none" pointer-events="none"/><ellipse cx="95" cy="228" rx="2" ry="2" fill="#994c00" stroke="none" pointer-events="none"/><ellipse cx="107" cy="222" rx="2" ry="2" fill="#994c00" stroke="none" pointer-events="none"/><ellipse cx="111" cy="232" rx="2" ry="2" fill="#994c00" stroke="none" pointer-events="none"/><ellipse cx="110" cy="212" rx="2" ry="2" fill="#994c00" stroke="none" pointer-events="none"/><ellipse cx="98" cy="216" rx="2" ry="2" fill="#994c00" stroke="none" pointer-events="none"/><ellipse cx="83" cy="240" rx="2" ry="2" fill="#994c00" stroke="none" pointer-events="none"/><ellipse cx="71" cy="231" rx="2" ry="2" fill="#994c00" stroke="none" pointer-events="none"/><ellipse cx="22" cy="253" rx="2" ry="2" fill="#994c00" stroke="none" pointer-events="none"/><ellipse cx="38" cy="263" rx="2" ry="2" fill="#994c00" stroke="none" pointer-events="none"/><ellipse cx="50" cy="257" rx="2" ry="2" fill="#994c00" stroke="none" pointer-events="none"/><ellipse cx="54" cy="267" rx="2" ry="2" fill="#994c00" stroke="none" pointer-events="none"/><ellipse cx="53" cy="247" rx="2" ry="2" fill="#994c00" stroke="none" pointer-events="none"/><ellipse cx="41" cy="251" rx="2" ry="2" fill="#994c00" stroke="none" pointer-events="none"/><ellipse cx="26" cy="275" rx="2" ry="2" fill="#994c00" stroke="none" pointer-events="none"/><ellipse cx="14" cy="266" rx="2" ry="2" fill="#994c00" stroke="none" pointer-events="none"/><ellipse cx="86" cy="255" rx="2" ry="2" fill="#994c00" stroke="none" pointer-events="none"/><ellipse cx="102" cy="265" rx="2" ry="2" fill="#994c00" stroke="none" pointer-events="none"/><ellipse cx="114" cy="259" rx="2" ry="2" fill="#994c00" stroke="none" pointer-events="none"/><ellipse cx="118" cy="269" rx="2" ry="2" fill="#994c00" stroke="none" pointer-events="none"/><ellipse cx="117" cy="249" rx="2" ry="2" fill="#994c00" stroke="none" pointer-events="none"/><ellipse cx="105" cy="253" rx="2" ry="2" fill="#994c00" stroke="none" pointer-events="none"/><ellipse cx="90" cy="277" rx="2" ry="2" fill="#994c00" stroke="none" pointer-events="none"/><ellipse cx="78" cy="268" rx="2" ry="2" fill="#994c00" stroke="none" pointer-events="none"/><ellipse cx="20" cy="216" rx="2" ry="2" fill="#994c00" stroke="none" pointer-events="none"/><ellipse cx="36" cy="226" rx="2" ry="2" fill="#994c00" stroke="none" pointer-events="none"/><ellipse cx="48" cy="220" rx="2" ry="2" fill="#994c00" stroke="none" pointer-events="none"/><ellipse cx="52" cy="230" rx="2" ry="2" fill="#994c00" stroke="none" pointer-events="none"/><ellipse cx="51" cy="210" rx="2" ry="2" fill="#994c00" stroke="none" pointer-events="none"/><ellipse cx="39" cy="214" rx="2" ry="2" fill="#994c00" stroke="none" pointer-events="none"/><ellipse cx="24" cy="238" rx="2" ry="2" fill="#994c00" stroke="none" pointer-events="none"/><ellipse cx="12" cy="229" rx="2" ry="2" fill="#994c00" stroke="none" pointer-events="none"/><ellipse cx="79" cy="218" rx="2" ry="2" fill="#994c00" stroke="none" pointer-events="none"/><ellipse cx="95" cy="228" rx="2" ry="2" fill="#994c00" stroke="none" pointer-events="none"/><ellipse cx="107" cy="222" rx="2" ry="2" fill="#994c00" stroke="none" pointer-events="none"/><ellipse cx="111" cy="232" rx="2" ry="2" fill="#994c00" stroke="none" pointer-events="none"/><ellipse cx="110" cy="212" rx="2" ry="2" fill="#994c00" stroke="none" pointer-events="none"/><ellipse cx="98" cy="216" rx="2" ry="2" fill="#994c00" stroke="none" pointer-events="none"/><ellipse cx="83" cy="240" rx="2" ry="2" fill="#994c00" stroke="none" pointer-events="none"/><ellipse cx="71" cy="231" rx="2" ry="2" fill="#994c00" stroke="none" pointer-events="none"/><ellipse cx="22" cy="253" rx="2" ry="2" fill="#994c00" stroke="none" pointer-events="none"/><ellipse cx="38" cy="263" rx="2" ry="2" fill="#994c00" stroke="none" pointer-events="none"/><ellipse cx="50" cy="257" rx="2" ry="2" fill="#994c00" stroke="none" pointer-events="none"/><ellipse cx="54" cy="267" rx="2" ry="2" fill="#994c00" stroke="none" pointer-events="none"/><ellipse cx="53" cy="247" rx="2" ry="2" fill="#994c00" stroke="none" pointer-events="none"/><ellipse cx="41" cy="251" rx="2" ry="2" fill="#994c00" stroke="none" pointer-events="none"/><ellipse cx="26" cy="275" rx="2" ry="2" fill="#994c00" stroke="none" pointer-events="none"/><ellipse cx="14" cy="266" rx="2" ry="2" fill="#994c00" stroke="none" pointer-events="none"/><ellipse cx="86" cy="255" rx="2" ry="2" fill="#994c00" stroke="none" pointer-events="none"/><ellipse cx="102" cy="265" rx="2" ry="2" fill="#994c00" stroke="none" pointer-events="none"/><ellipse cx="114" cy="259" rx="2" ry="2" fill="#994c00" stroke="none" pointer-events="none"/><ellipse cx="118" cy="269" rx="2" ry="2" fill="#994c00" stroke="none" pointer-events="none"/><ellipse cx="117" cy="249" rx="2" ry="2" fill="#994c00" stroke="none" pointer-events="none"/><ellipse cx="105" cy="253" rx="2" ry="2" fill="#994c00" stroke="none" pointer-events="none"/><ellipse cx="90" cy="277" rx="2" ry="2" fill="#994c00" stroke="none" pointer-events="none"/><ellipse cx="78" cy="268" rx="2" ry="2" fill="#994c00" stroke="none" pointer-events="none"/><ellipse cx="22" cy="285" rx="2" ry="2" fill="#994c00" stroke="none" pointer-events="none"/><ellipse cx="38" cy="295" rx="2" ry="2" fill="#994c00" stroke="none" pointer-events="none"/><ellipse cx="50" cy="289" rx="2" ry="2" fill="#994c00" stroke="none" pointer-events="none"/><ellipse cx="54" cy="299" rx="2" ry="2" fill="#994c00" stroke="none" pointer-events="none"/><ellipse cx="53" cy="279" rx="2" ry="2" fill="#994c00" stroke="none" pointer-events="none"/><ellipse cx="41" cy="283" rx="2" ry="2" fill="#994c00" stroke="none" pointer-events="none"/><ellipse cx="26" cy="307" rx="2" ry="2" fill="#994c00" stroke="none" pointer-events="none"/><ellipse cx="14" cy="298" rx="2" ry="2" fill="#994c00" stroke="none" pointer-events="none"/><ellipse cx="81" cy="287" rx="2" ry="2" fill="#994c00" stroke="none" pointer-events="none"/><ellipse cx="97" cy="297" rx="2" ry="2" fill="#994c00" stroke="none" pointer-events="none"/><ellipse cx="109" cy="291" rx="2" ry="2" fill="#994c00" stroke="none" pointer-events="none"/><ellipse cx="113" cy="301" rx="2" ry="2" fill="#994c00" stroke="none" pointer-events="none"/><ellipse cx="112" cy="281" rx="2" ry="2" fill="#994c00" stroke="none" pointer-events="none"/><ellipse cx="100" cy="285" rx="2" ry="2" fill="#994c00" stroke="none" pointer-events="none"/><ellipse cx="85" cy="309" rx="2" ry="2" fill="#994c00" stroke="none" pointer-events="none"/><ellipse cx="73" cy="300" rx="2" ry="2" fill="#994c00" stroke="none" pointer-events="none"/><ellipse cx="24" cy="322" rx="2" ry="2" fill="#994c00" stroke="none" pointer-events="none"/><ellipse cx="40" cy="332" rx="2" ry="2" fill="#994c00" stroke="none" pointer-events="none"/><ellipse cx="52" cy="326" rx="2" ry="2" fill="#994c00" stroke="none" pointer-events="none"/><ellipse cx="56" cy="336" rx="2" ry="2" fill="#994c00" stroke="none" pointer-events="none"/><ellipse cx="55" cy="316" rx="2" ry="2" fill="#994c00" stroke="none" pointer-events="none"/><ellipse cx="43" cy="320" rx="2" ry="2" fill="#994c00" stroke="none" pointer-events="none"/><ellipse cx="28" cy="344" rx="2" ry="2" fill="#994c00" stroke="none" pointer-events="none"/><ellipse cx="16" cy="335" rx="2" ry="2" fill="#994c00" stroke="none" pointer-events="none"/><ellipse cx="88" cy="324" rx="2" ry="2" fill="#994c00" stroke="none" pointer-events="none"/><ellipse cx="104" cy="334" rx="2" ry="2" fill="#994c00" stroke="none" pointer-events="none"/><ellipse cx="116" cy="328" rx="2" ry="2" fill="#994c00" stroke="none" pointer-events="none"/><ellipse cx="120" cy="338" rx="2" ry="2" fill="#994c00" stroke="none" pointer-events="none"/><ellipse cx="119" cy="318" rx="2" ry="2" fill="#994c00" stroke="none" pointer-events="none"/><ellipse cx="107" cy="322" rx="2" ry="2" fill="#994c00" stroke="none" pointer-events="none"/><ellipse cx="92" cy="346" rx="2" ry="2" fill="#994c00" stroke="none" pointer-events="none"/><ellipse cx="80" cy="337" rx="2" ry="2" fill="#994c00" stroke="none" pointer-events="none"/><ellipse cx="136" cy="218" rx="2" ry="2" fill="#994c00" stroke="none" pointer-events="none"/><ellipse cx="152" cy="228" rx="2" ry="2" fill="#994c00" stroke="none" pointer-events="none"/><ellipse cx="164" cy="222" rx="2" ry="2" fill="#994c00" stroke="none" pointer-events="none"/><ellipse cx="168" cy="232" rx="2" ry="2" fill="#994c00" stroke="none" pointer-events="none"/><ellipse cx="167" cy="212" rx="2" ry="2" fill="#994c00" stroke="none" pointer-events="none"/><ellipse cx="155" cy="216" rx="2" ry="2" fill="#994c00" stroke="none" pointer-events="none"/><ellipse cx="140" cy="240" rx="2" ry="2" fill="#994c00" stroke="none" pointer-events="none"/><ellipse cx="128" cy="231" rx="2" ry="2" fill="#994c00" stroke="none" pointer-events="none"/><ellipse cx="195" cy="220" rx="2" ry="2" fill="#994c00" stroke="none" pointer-events="none"/><ellipse cx="211" cy="230" rx="2" ry="2" fill="#994c00" stroke="none" pointer-events="none"/><ellipse cx="223" cy="224" rx="2" ry="2" fill="#994c00" stroke="none" pointer-events="none"/><ellipse cx="227" cy="234" rx="2" ry="2" fill="#994c00" stroke="none" pointer-events="none"/><ellipse cx="226" cy="214" rx="2" ry="2" fill="#994c00" stroke="none" pointer-events="none"/><ellipse cx="214" cy="218" rx="2" ry="2" fill="#994c00" stroke="none" pointer-events="none"/><ellipse cx="199" cy="242" rx="2" ry="2" fill="#994c00" stroke="none" pointer-events="none"/><ellipse cx="187" cy="233" rx="2" ry="2" fill="#994c00" stroke="none" pointer-events="none"/><ellipse cx="138" cy="255" rx="2" ry="2" fill="#994c00" stroke="none" pointer-events="none"/><ellipse cx="154" cy="265" rx="2" ry="2" fill="#994c00" stroke="none" pointer-events="none"/><ellipse cx="166" cy="259" rx="2" ry="2" fill="#994c00" stroke="none" pointer-events="none"/><ellipse cx="170" cy="269" rx="2" ry="2" fill="#994c00" stroke="none" pointer-events="none"/><ellipse cx="169" cy="249" rx="2" ry="2" fill="#994c00" stroke="none" pointer-events="none"/><ellipse cx="157" cy="253" rx="2" ry="2" fill="#994c00" stroke="none" pointer-events="none"/><ellipse cx="142" cy="277" rx="2" ry="2" fill="#994c00" stroke="none" pointer-events="none"/><ellipse cx="130" cy="268" rx="2" ry="2" fill="#994c00" stroke="none" pointer-events="none"/><ellipse cx="202" cy="257" rx="2" ry="2" fill="#994c00" stroke="none" pointer-events="none"/><ellipse cx="218" cy="267" rx="2" ry="2" fill="#994c00" stroke="none" pointer-events="none"/><ellipse cx="230" cy="261" rx="2" ry="2" fill="#994c00" stroke="none" pointer-events="none"/><ellipse cx="234" cy="271" rx="2" ry="2" fill="#994c00" stroke="none" pointer-events="none"/><ellipse cx="233" cy="251" rx="2" ry="2" fill="#994c00" stroke="none" pointer-events="none"/><ellipse cx="221" cy="255" rx="2" ry="2" fill="#994c00" stroke="none" pointer-events="none"/><ellipse cx="206" cy="279" rx="2" ry="2" fill="#994c00" stroke="none" pointer-events="none"/><ellipse cx="194" cy="270" rx="2" ry="2" fill="#994c00" stroke="none" pointer-events="none"/><ellipse cx="136" cy="218" rx="2" ry="2" fill="#994c00" stroke="none" pointer-events="none"/><ellipse cx="152" cy="228" rx="2" ry="2" fill="#994c00" stroke="none" pointer-events="none"/><ellipse cx="164" cy="222" rx="2" ry="2" fill="#994c00" stroke="none" pointer-events="none"/><ellipse cx="168" cy="232" rx="2" ry="2" fill="#994c00" stroke="none" pointer-events="none"/><ellipse cx="167" cy="212" rx="2" ry="2" fill="#994c00" stroke="none" pointer-events="none"/><ellipse cx="155" cy="216" rx="2" ry="2" fill="#994c00" stroke="none" pointer-events="none"/><ellipse cx="140" cy="240" rx="2" ry="2" fill="#994c00" stroke="none" pointer-events="none"/><ellipse cx="128" cy="231" rx="2" ry="2" fill="#994c00" stroke="none" pointer-events="none"/><ellipse cx="195" cy="220" rx="2" ry="2" fill="#994c00" stroke="none" pointer-events="none"/><ellipse cx="211" cy="230" rx="2" ry="2" fill="#994c00" stroke="none" pointer-events="none"/><ellipse cx="223" cy="224" rx="2" ry="2" fill="#994c00" stroke="none" pointer-events="none"/><ellipse cx="227" cy="234" rx="2" ry="2" fill="#994c00" stroke="none" pointer-events="none"/><ellipse cx="226" cy="214" rx="2" ry="2" fill="#994c00" stroke="none" pointer-events="none"/><ellipse cx="214" cy="218" rx="2" ry="2" fill="#994c00" stroke="none" pointer-events="none"/><ellipse cx="199" cy="242" rx="2" ry="2" fill="#994c00" stroke="none" pointer-events="none"/><ellipse cx="187" cy="233" rx="2" ry="2" fill="#994c00" stroke="none" pointer-events="none"/><ellipse cx="138" cy="255" rx="2" ry="2" fill="#994c00" stroke="none" pointer-events="none"/><ellipse cx="154" cy="265" rx="2" ry="2" fill="#994c00" stroke="none" pointer-events="none"/><ellipse cx="166" cy="259" rx="2" ry="2" fill="#994c00" stroke="none" pointer-events="none"/><ellipse cx="170" cy="269" rx="2" ry="2" fill="#994c00" stroke="none" pointer-events="none"/><ellipse cx="169" cy="249" rx="2" ry="2" fill="#994c00" stroke="none" pointer-events="none"/><ellipse cx="157" cy="253" rx="2" ry="2" fill="#994c00" stroke="none" pointer-events="none"/><ellipse cx="142" cy="277" rx="2" ry="2" fill="#994c00" stroke="none" pointer-events="none"/><ellipse cx="130" cy="268" rx="2" ry="2" fill="#994c00" stroke="none" pointer-events="none"/><ellipse cx="202" cy="257" rx="2" ry="2" fill="#994c00" stroke="none" pointer-events="none"/><ellipse cx="218" cy="267" rx="2" ry="2" fill="#994c00" stroke="none" pointer-events="none"/><ellipse cx="230" cy="261" rx="2" ry="2" fill="#994c00" stroke="none" pointer-events="none"/><ellipse cx="234" cy="271" rx="2" ry="2" fill="#994c00" stroke="none" pointer-events="none"/><ellipse cx="233" cy="251" rx="2" ry="2" fill="#994c00" stroke="none" pointer-events="none"/><ellipse cx="221" cy="255" rx="2" ry="2" fill="#994c00" stroke="none" pointer-events="none"/><ellipse cx="206" cy="279" rx="2" ry="2" fill="#994c00" stroke="none" pointer-events="none"/><ellipse cx="194" cy="270" rx="2" ry="2" fill="#994c00" stroke="none" pointer-events="none"/><ellipse cx="138" cy="287" rx="2" ry="2" fill="#994c00" stroke="none" pointer-events="none"/><ellipse cx="154" cy="297" rx="2" ry="2" fill="#994c00" stroke="none" pointer-events="none"/><ellipse cx="166" cy="291" rx="2" ry="2" fill="#994c00" stroke="none" pointer-events="none"/><ellipse cx="170" cy="301" rx="2" ry="2" fill="#994c00" stroke="none" pointer-events="none"/><ellipse cx="169" cy="281" rx="2" ry="2" fill="#994c00" stroke="none" pointer-events="none"/><ellipse cx="157" cy="285" rx="2" ry="2" fill="#994c00" stroke="none" pointer-events="none"/><ellipse cx="142" cy="309" rx="2" ry="2" fill="#994c00" stroke="none" pointer-events="none"/><ellipse cx="130" cy="300" rx="2" ry="2" fill="#994c00" stroke="none" pointer-events="none"/><ellipse cx="197" cy="289" rx="2" ry="2" fill="#994c00" stroke="none" pointer-events="none"/><ellipse cx="213" cy="299" rx="2" ry="2" fill="#994c00" stroke="none" pointer-events="none"/><ellipse cx="225" cy="293" rx="2" ry="2" fill="#994c00" stroke="none" pointer-events="none"/><ellipse cx="229" cy="303" rx="2" ry="2" fill="#994c00" stroke="none" pointer-events="none"/><ellipse cx="228" cy="283" rx="2" ry="2" fill="#994c00" stroke="none" pointer-events="none"/><ellipse cx="216" cy="287" rx="2" ry="2" fill="#994c00" stroke="none" pointer-events="none"/><ellipse cx="201" cy="311" rx="2" ry="2" fill="#994c00" stroke="none" pointer-events="none"/><ellipse cx="189" cy="302" rx="2" ry="2" fill="#994c00" stroke="none" pointer-events="none"/><ellipse cx="140" cy="324" rx="2" ry="2" fill="#994c00" stroke="none" pointer-events="none"/><ellipse cx="156" cy="334" rx="2" ry="2" fill="#994c00" stroke="none" pointer-events="none"/><ellipse cx="168" cy="328" rx="2" ry="2" fill="#994c00" stroke="none" pointer-events="none"/><ellipse cx="172" cy="338" rx="2" ry="2" fill="#994c00" stroke="none" pointer-events="none"/><ellipse cx="171" cy="318" rx="2" ry="2" fill="#994c00" stroke="none" pointer-events="none"/><ellipse cx="159" cy="322" rx="2" ry="2" fill="#994c00" stroke="none" pointer-events="none"/><ellipse cx="144" cy="346" rx="2" ry="2" fill="#994c00" stroke="none" pointer-events="none"/><ellipse cx="132" cy="337" rx="2" ry="2" fill="#994c00" stroke="none" pointer-events="none"/><ellipse cx="204" cy="326" rx="2" ry="2" fill="#994c00" stroke="none" pointer-events="none"/><ellipse cx="220" cy="336" rx="2" ry="2" fill="#994c00" stroke="none" pointer-events="none"/><ellipse cx="232" cy="330" rx="2" ry="2" fill="#994c00" stroke="none" pointer-events="none"/><ellipse cx="236" cy="340" rx="2" ry="2" fill="#994c00" stroke="none" pointer-events="none"/><ellipse cx="235" cy="320" rx="2" ry="2" fill="#994c00" stroke="none" pointer-events="none"/><ellipse cx="223" cy="324" rx="2" ry="2" fill="#994c00" stroke="none" pointer-events="none"/><ellipse cx="208" cy="348" rx="2" ry="2" fill="#994c00" stroke="none" pointer-events="none"/><ellipse cx="196" cy="339" rx="2" ry="2" fill="#994c00" stroke="none" pointer-events="none"/><ellipse cx="216" cy="221" rx="2" ry="2" fill="#994c00" stroke="none" pointer-events="none"/><ellipse cx="232" cy="231" rx="2" ry="2" fill="#994c00" stroke="none" pointer-events="none"/><ellipse cx="244" cy="225" rx="2" ry="2" fill="#994c00" stroke="none" pointer-events="none"/><ellipse cx="248" cy="235" rx="2" ry="2" fill="#994c00" stroke="none" pointer-events="none"/><ellipse cx="247" cy="215" rx="2" ry="2" fill="#994c00" stroke="none" pointer-events="none"/><ellipse cx="235" cy="219" rx="2" ry="2" fill="#994c00" stroke="none" pointer-events="none"/><ellipse cx="220" cy="243" rx="2" ry="2" fill="#994c00" stroke="none" pointer-events="none"/><ellipse cx="208" cy="234" rx="2" ry="2" fill="#994c00" stroke="none" pointer-events="none"/><ellipse cx="275" cy="223" rx="2" ry="2" fill="#994c00" stroke="none" pointer-events="none"/><ellipse cx="291" cy="233" rx="2" ry="2" fill="#994c00" stroke="none" pointer-events="none"/><ellipse cx="303" cy="227" rx="2" ry="2" fill="#994c00" stroke="none" pointer-events="none"/><ellipse cx="307" cy="237" rx="2" ry="2" fill="#994c00" stroke="none" pointer-events="none"/><ellipse cx="306" cy="217" rx="2" ry="2" fill="#994c00" stroke="none" pointer-events="none"/><ellipse cx="294" cy="221" rx="2" ry="2" fill="#994c00" stroke="none" pointer-events="none"/><ellipse cx="279" cy="245" rx="2" ry="2" fill="#994c00" stroke="none" pointer-events="none"/><ellipse cx="267" cy="236" rx="2" ry="2" fill="#994c00" stroke="none" pointer-events="none"/><ellipse cx="218" cy="258" rx="2" ry="2" fill="#994c00" stroke="none" pointer-events="none"/><ellipse cx="234" cy="268" rx="2" ry="2" fill="#994c00" stroke="none" pointer-events="none"/><ellipse cx="246" cy="262" rx="2" ry="2" fill="#994c00" stroke="none" pointer-events="none"/><ellipse cx="250" cy="272" rx="2" ry="2" fill="#994c00" stroke="none" pointer-events="none"/><ellipse cx="249" cy="252" rx="2" ry="2" fill="#994c00" stroke="none" pointer-events="none"/><ellipse cx="237" cy="256" rx="2" ry="2" fill="#994c00" stroke="none" pointer-events="none"/><ellipse cx="222" cy="280" rx="2" ry="2" fill="#994c00" stroke="none" pointer-events="none"/><ellipse cx="210" cy="271" rx="2" ry="2" fill="#994c00" stroke="none" pointer-events="none"/><ellipse cx="282" cy="260" rx="2" ry="2" fill="#994c00" stroke="none" pointer-events="none"/><ellipse cx="298" cy="270" rx="2" ry="2" fill="#994c00" stroke="none" pointer-events="none"/><ellipse cx="310" cy="264" rx="2" ry="2" fill="#994c00" stroke="none" pointer-events="none"/><ellipse cx="314" cy="274" rx="2" ry="2" fill="#994c00" stroke="none" pointer-events="none"/><ellipse cx="313" cy="254" rx="2" ry="2" fill="#994c00" stroke="none" pointer-events="none"/><ellipse cx="301" cy="258" rx="2" ry="2" fill="#994c00" stroke="none" pointer-events="none"/><ellipse cx="286" cy="282" rx="2" ry="2" fill="#994c00" stroke="none" pointer-events="none"/><ellipse cx="274" cy="273" rx="2" ry="2" fill="#994c00" stroke="none" pointer-events="none"/><ellipse cx="216" cy="221" rx="2" ry="2" fill="#994c00" stroke="none" pointer-events="none"/><ellipse cx="232" cy="231" rx="2" ry="2" fill="#994c00" stroke="none" pointer-events="none"/><ellipse cx="244" cy="225" rx="2" ry="2" fill="#994c00" stroke="none" pointer-events="none"/><ellipse cx="248" cy="235" rx="2" ry="2" fill="#994c00" stroke="none" pointer-events="none"/><ellipse cx="247" cy="215" rx="2" ry="2" fill="#994c00" stroke="none" pointer-events="none"/><ellipse cx="235" cy="219" rx="2" ry="2" fill="#994c00" stroke="none" pointer-events="none"/><ellipse cx="220" cy="243" rx="2" ry="2" fill="#994c00" stroke="none" pointer-events="none"/><ellipse cx="208" cy="234" rx="2" ry="2" fill="#994c00" stroke="none" pointer-events="none"/><ellipse cx="275" cy="223" rx="2" ry="2" fill="#994c00" stroke="none" pointer-events="none"/><ellipse cx="291" cy="233" rx="2" ry="2" fill="#994c00" stroke="none" pointer-events="none"/><ellipse cx="303" cy="227" rx="2" ry="2" fill="#994c00" stroke="none" pointer-events="none"/><ellipse cx="307" cy="237" rx="2" ry="2" fill="#994c00" stroke="none" pointer-events="none"/><ellipse cx="306" cy="217" rx="2" ry="2" fill="#994c00" stroke="none" pointer-events="none"/><ellipse cx="294" cy="221" rx="2" ry="2" fill="#994c00" stroke="none" pointer-events="none"/><ellipse cx="279" cy="245" rx="2" ry="2" fill="#994c00" stroke="none" pointer-events="none"/><ellipse cx="267" cy="236" rx="2" ry="2" fill="#994c00" stroke="none" pointer-events="none"/><ellipse cx="218" cy="258" rx="2" ry="2" fill="#994c00" stroke="none" pointer-events="none"/><ellipse cx="234" cy="268" rx="2" ry="2" fill="#994c00" stroke="none" pointer-events="none"/><ellipse cx="246" cy="262" rx="2" ry="2" fill="#994c00" stroke="none" pointer-events="none"/><ellipse cx="250" cy="272" rx="2" ry="2" fill="#994c00" stroke="none" pointer-events="none"/><ellipse cx="249" cy="252" rx="2" ry="2" fill="#994c00" stroke="none" pointer-events="none"/><ellipse cx="237" cy="256" rx="2" ry="2" fill="#994c00" stroke="none" pointer-events="none"/><ellipse cx="222" cy="280" rx="2" ry="2" fill="#994c00" stroke="none" pointer-events="none"/><ellipse cx="210" cy="271" rx="2" ry="2" fill="#994c00" stroke="none" pointer-events="none"/><ellipse cx="282" cy="260" rx="2" ry="2" fill="#994c00" stroke="none" pointer-events="none"/><ellipse cx="298" cy="270" rx="2" ry="2" fill="#994c00" stroke="none" pointer-events="none"/><ellipse cx="310" cy="264" rx="2" ry="2" fill="#994c00" stroke="none" pointer-events="none"/><ellipse cx="314" cy="274" rx="2" ry="2" fill="#994c00" stroke="none" pointer-events="none"/><ellipse cx="313" cy="254" rx="2" ry="2" fill="#994c00" stroke="none" pointer-events="none"/><ellipse cx="301" cy="258" rx="2" ry="2" fill="#994c00" stroke="none" pointer-events="none"/><ellipse cx="286" cy="282" rx="2" ry="2" fill="#994c00" stroke="none" pointer-events="none"/><ellipse cx="274" cy="273" rx="2" ry="2" fill="#994c00" stroke="none" pointer-events="none"/><ellipse cx="218" cy="290" rx="2" ry="2" fill="#994c00" stroke="none" pointer-events="none"/><ellipse cx="234" cy="300" rx="2" ry="2" fill="#994c00" stroke="none" pointer-events="none"/><ellipse cx="246" cy="294" rx="2" ry="2" fill="#994c00" stroke="none" pointer-events="none"/><ellipse cx="250" cy="304" rx="2" ry="2" fill="#994c00" stroke="none" pointer-events="none"/><ellipse cx="249" cy="284" rx="2" ry="2" fill="#994c00" stroke="none" pointer-events="none"/><ellipse cx="237" cy="288" rx="2" ry="2" fill="#994c00" stroke="none" pointer-events="none"/><ellipse cx="222" cy="312" rx="2" ry="2" fill="#994c00" stroke="none" pointer-events="none"/><ellipse cx="210" cy="303" rx="2" ry="2" fill="#994c00" stroke="none" pointer-events="none"/><ellipse cx="277" cy="292" rx="2" ry="2" fill="#994c00" stroke="none" pointer-events="none"/><ellipse cx="293" cy="302" rx="2" ry="2" fill="#994c00" stroke="none" pointer-events="none"/><ellipse cx="305" cy="296" rx="2" ry="2" fill="#994c00" stroke="none" pointer-events="none"/><ellipse cx="309" cy="306" rx="2" ry="2" fill="#994c00" stroke="none" pointer-events="none"/><ellipse cx="308" cy="286" rx="2" ry="2" fill="#994c00" stroke="none" pointer-events="none"/><ellipse cx="296" cy="290" rx="2" ry="2" fill="#994c00" stroke="none" pointer-events="none"/><ellipse cx="281" cy="314" rx="2" ry="2" fill="#994c00" stroke="none" pointer-events="none"/><ellipse cx="269" cy="305" rx="2" ry="2" fill="#994c00" stroke="none" pointer-events="none"/><ellipse cx="220" cy="327" rx="2" ry="2" fill="#994c00" stroke="none" pointer-events="none"/><ellipse cx="236" cy="337" rx="2" ry="2" fill="#994c00" stroke="none" pointer-events="none"/><ellipse cx="248" cy="331" rx="2" ry="2" fill="#994c00" stroke="none" pointer-events="none"/><ellipse cx="252" cy="341" rx="2" ry="2" fill="#994c00" stroke="none" pointer-events="none"/><ellipse cx="251" cy="321" rx="2" ry="2" fill="#994c00" stroke="none" pointer-events="none"/><ellipse cx="239" cy="325" rx="2" ry="2" fill="#994c00" stroke="none" pointer-events="none"/><ellipse cx="224" cy="349" rx="2" ry="2" fill="#994c00" stroke="none" pointer-events="none"/><ellipse cx="212" cy="340" rx="2" ry="2" fill="#994c00" stroke="none" pointer-events="none"/><ellipse cx="284" cy="329" rx="2" ry="2" fill="#994c00" stroke="none" pointer-events="none"/><ellipse cx="300" cy="339" rx="2" ry="2" fill="#994c00" stroke="none" pointer-events="none"/><ellipse cx="312" cy="333" rx="2" ry="2" fill="#994c00" stroke="none" pointer-events="none"/><ellipse cx="316" cy="343" rx="2" ry="2" fill="#994c00" stroke="none" pointer-events="none"/><ellipse cx="315" cy="323" rx="2" ry="2" fill="#994c00" stroke="none" pointer-events="none"/><ellipse cx="303" cy="327" rx="2" ry="2" fill="#994c00" stroke="none" pointer-events="none"/><ellipse cx="288" cy="351" rx="2" ry="2" fill="#994c00" stroke="none" pointer-events="none"/><ellipse cx="276" cy="342" rx="2" ry="2" fill="#994c00" stroke="none" pointer-events="none"/><path d="M 148 123 L 148 144.9" fill="none" stroke="#004c99" stroke-width="3" stroke-miterlimit="10" pointer-events="none"/><path d="M 148 151.65 L 143.5 142.65 L 148 144.9 L 152.5 142.65 Z" fill="#004c99" stroke="#004c99" stroke-width="3" stroke-miterlimit="10" pointer-events="none"/><path d="M 135.55 72 C 145.74 70.79 153.01 61.61 151.79 51.51 C 150.57 41.41 141.31 34.2 131.12 35.41 C 131 20.32 120.33 7.33 105.44 4.16 C 90.55 1 75.44 8.52 69.1 22.24 C 64.4 16.91 56.93 14.9 50.15 17.14 C 43.38 19.37 38.62 25.42 38.09 32.48 C 27.08 32.08 17.82 40.6 17.41 51.51 C 17.01 62.42 25.6 71.6 36.61 72 Z" fill="#ffffff" stroke="#0080f0" stroke-width="2" stroke-miterlimit="10" pointer-events="none"/><path d="M 183.14 77 C 188.32 76.39 192.01 71.73 191.39 66.61 C 190.77 61.49 186.07 57.83 180.9 58.45 C 180.84 50.79 175.42 44.21 167.87 42.6 C 160.31 41 152.65 44.81 149.43 51.77 C 147.05 49.07 143.26 48.05 139.82 49.18 C 136.38 50.32 133.97 53.38 133.7 56.96 C 128.11 56.76 123.42 61.08 123.21 66.61 C 123 72.14 127.36 76.8 132.95 77 Z" fill="#ffffff" stroke="#0080f0" stroke-width="2" stroke-miterlimit="10" pointer-events="none"/><path d="M 47 85 L 51 75" fill="none" stroke="#004c99" stroke-miterlimit="10" pointer-events="none"/><path d="M 51 85 L 55 75" fill="none" stroke="#004c99" stroke-miterlimit="10" pointer-events="none"/><path d="M 55 85 L 59 75" fill="none" stroke="#004c99" stroke-miterlimit="10" pointer-events="none"/><path d="M 54 123 L 54 144.9" fill="none" stroke="#004c99" stroke-width="3" stroke-miterlimit="10" pointer-events="none"/><path d="M 54 151.65 L 49.5 142.65 L 54 144.9 L 58.5 142.65 Z" fill="#004c99" stroke="#004c99" stroke-width="3" stroke-miterlimit="10" pointer-events="none"/><path d="M 71 85 L 75 75" fill="none" stroke="#004c99" stroke-miterlimit="10" pointer-events="none"/><path d="M 75 85 L 79 75" fill="none" stroke="#004c99" stroke-miterlimit="10" pointer-events="none"/><path d="M 79 85 L 83 75" fill="none" stroke="#004c99" stroke-miterlimit="10" pointer-events="none"/><path d="M 95 85 L 99 75" fill="none" stroke="#004c99" stroke-miterlimit="10" pointer-events="none"/><path d="M 99 85 L 103 75" fill="none" stroke="#004c99" stroke-miterlimit="10" pointer-events="none"/><path d="M 103 85 L 107 75" fill="none" stroke="#004c99" stroke-miterlimit="10" pointer-events="none"/><path d="M 133 90 L 137 80" fill="none" stroke="#004c99" stroke-miterlimit="10" pointer-events="none"/><path d="M 137 90 L 141 80" fill="none" stroke="#004c99" stroke-miterlimit="10" pointer-events="none"/><path d="M 141 90 L 145 80" fill="none" stroke="#004c99" stroke-miterlimit="10" pointer-events="none"/><path d="M 162 90 L 166 80" fill="none" stroke="#004c99" stroke-miterlimit="10" pointer-events="none"/><path d="M 166 90 L 170 80" fill="none" stroke="#004c99" stroke-miterlimit="10" pointer-events="none"/><path d="M 170 90 L 174 80" fill="none" stroke="#004c99" stroke-miterlimit="10" pointer-events="none"/><path d="M 246.16 39.96 C 246.16 28.94 255.06 20.01 266.04 20.01 C 277.01 20.01 285.9 28.94 285.9 39.96 C 285.9 50.98 277.01 59.9 266.04 59.9 C 255.06 59.9 246.16 50.97 246.16 39.96" fill="#ff8000" stroke="none" pointer-events="none"/><path d="M 264.42 4 L 267.64 4 L 267.64 16.28 L 264.42 16.28 L 264.42 4 Z" fill="#ff8000" stroke="none" pointer-events="none"/><path d="M 264.23 63.72 L 267.45 63.72 L 267.45 76 L 264.23 76 L 264.23 63.72 Z" fill="#ff8000" stroke="none" pointer-events="none"/><path d="M 289.76 37.63 L 302 37.63 L 302 40.85 L 289.76 40.85 L 289.76 37.63 Z" fill="#ff8000" stroke="none" pointer-events="none"/><path d="M 230 37.43 L 242.24 37.43 L 242.24 40.66 L 230 40.66 L 230 37.43 Z" fill="#ff8000" stroke="none" pointer-events="none"/><path d="M 234.67 22.35 L 236.23 19.53 L 246.92 25.47 L 245.36 28.3 L 234.67 22.35 Z" fill="#ff8000" stroke="none" pointer-events="none"/><path d="M 247.5 9.22 L 250.23 7.5 L 256.73 17.92 L 254 19.63 L 247.5 9.22 Z" fill="#ff8000" stroke="none" pointer-events="none"/><path d="M 276.6 61.01 L 279.38 59.41 L 285.49 70.05 L 282.72 71.65 L 276.6 61.01 Z" fill="#ff8000" stroke="none" pointer-events="none"/><path d="M 285.96 52.42 L 287.52 49.6 L 298.23 55.55 L 296.66 58.38 L 285.96 52.42 Z" fill="#ff8000" stroke="none" pointer-events="none"/><path d="M 249.52 71.8 L 246.7 70.23 L 252.63 59.48 L 255.45 61.04 L 249.52 71.8 Z" fill="#ff8000" stroke="none" pointer-events="none"/><path d="M 235.29 58.16 L 233.59 55.42 L 243.97 48.9 L 245.67 51.63 L 235.29 58.16 Z" fill="#ff8000" stroke="none" pointer-events="none"/><path d="M 287.11 29.33 L 285.5 26.53 L 296.1 20.39 L 297.71 23.19 L 287.11 29.33 Z" fill="#ff8000" stroke="none" pointer-events="none"/><path d="M 278.93 20.13 L 276.1 18.55 L 282.04 7.81 L 284.85 9.39 L 278.93 20.13 Z" fill="#ff8000" stroke="none" pointer-events="none"/><path d="M 273 134 L 273 100.1" fill="none" stroke="#004c99" stroke-width="3" stroke-miterlimit="10" pointer-events="none"/><path d="M 273 93.35 L 277.5 102.35 L 273 100.1 L 268.5 102.35 Z" fill="#004c99" stroke="#004c99" stroke-width="3" stroke-miterlimit="10" pointer-events="none"/><path d="M 149 206.19 L 149 228.09" fill="none" stroke="#004c99" stroke-width="3" stroke-miterlimit="10" pointer-events="none"/><path d="M 149 234.84 L 144.5 225.84 L 149 228.09 L 153.5 225.84 Z" fill="#004c99" stroke="#004c99" stroke-width="3" stroke-miterlimit="10" pointer-events="none"/><path d="M 55 206.19 L 55 228.09" fill="none" stroke="#004c99" stroke-width="3" stroke-miterlimit="10" pointer-events="none"/><path d="M 55 234.84 L 50.5 225.84 L 55 228.09 L 59.5 225.84 Z" fill="#004c99" stroke="#004c99" stroke-width="3" stroke-miterlimit="10" pointer-events="none"/><path d="M 206 206 L 206 227.9" fill="none" stroke="#004c99" stroke-width="3" stroke-miterlimit="10" pointer-events="none"/><path d="M 206 234.65 L 201.5 225.65 L 206 227.9 L 210.5 225.65 Z" fill="#004c99" stroke="#004c99" stroke-width="3" stroke-miterlimit="10" pointer-events="none"/><path d="M 279 206 L 279 227.9" fill="none" stroke="#004c99" stroke-width="3" stroke-miterlimit="10" pointer-events="none"/><path d="M 279 234.65 L 274.5 225.65 L 279 227.9 L 283.5 225.65 Z" fill="#004c99" stroke="#004c99" stroke-width="3" stroke-miterlimit="10" pointer-events="none"/><path d="M 71 373 L 71 410.9" fill="none" stroke="#004c99" stroke-width="3" stroke-miterlimit="10" pointer-events="none"/><path d="M 71 417.65 L 66.5 408.65 L 71 410.9 L 75.5 408.65 Z" fill="#004c99" stroke="#004c99" stroke-width="3" stroke-miterlimit="10" pointer-events="none"/><path d="M 194 418 L 194 381.1" fill="none" stroke="#004c99" stroke-width="3" stroke-miterlimit="10" pointer-events="none"/><path d="M 194 374.35 L 198.5 383.35 L 194 381.1 L 189.5 383.35 Z" fill="#004c99" stroke="#004c99" stroke-width="3" stroke-miterlimit="10" pointer-events="none"/><path d="M 70 564 L 70 601.9" fill="none" stroke="#004c99" stroke-width="3" stroke-miterlimit="10" pointer-events="none"/><path d="M 70 608.65 L 65.5 599.65 L 70 601.9 L 74.5 599.65 Z" fill="#004c99" stroke="#004c99" stroke-width="3" stroke-miterlimit="10" pointer-events="none"/><path d="M 240 508 L 292 508 Q 302 508 302 518 L 302 657" fill="none" stroke="#0066cc" stroke-width="15" stroke-miterlimit="10" pointer-events="none"/><path d="M 270 646.31 L 306.92 646.31 L 306.92 630 L 333 651 L 306.92 672 L 306.92 655.69 L 270 655.69 Z" fill="#0066cc" stroke="none" transform="rotate(90,301.5,651)" pointer-events="none"/><path d="M 118 206.19 L 118 228.09" fill="none" stroke="#004c99" stroke-width="3" stroke-miterlimit="10" pointer-events="none"/><path d="M 118 234.84 L 113.5 225.84 L 118 228.09 L 122.5 225.84 Z" fill="#004c99" stroke="#004c99" stroke-width="3" stroke-miterlimit="10" pointer-events="none"/><path d="M 86 206.19 L 86 228.09" fill="none" stroke="#004c99" stroke-width="3" stroke-miterlimit="10" pointer-events="none"/><path d="M 86 234.84 L 81.5 225.84 L 86 228.09 L 90.5 225.84 Z" fill="#004c99" stroke="#004c99" stroke-width="3" stroke-miterlimit="10" pointer-events="none"/><path d="M 240 696.36 L 284.94 696.36 L 284.94 687 L 322 704 L 284.94 721 L 284.94 711.64 L 240 711.64 Z" fill="#0066cc" stroke="none" pointer-events="none"/></g></svg>